<?xml version="1.0" encoding="UTF-8" standalone="no"?>
<svg
   height="16"
   viewBox="0 0 16 16"
   width="16"
   version="1.1"
   id="svg1"
   sodipodi:docname="HighlightObject.svg"
   inkscape:version="1.3 (0e150ed6c4, 2023-07-21)"
   xmlns:inkscape="http://www.inkscape.org/namespaces/inkscape"
   xmlns:sodipodi="http://sodipodi.sourceforge.net/DTD/sodipodi-0.dtd"
   xmlns="http://www.w3.org/2000/svg"
   xmlns:svg="http://www.w3.org/2000/svg">
  <defs
     id="defs1" />
  <sodipodi:namedview
     id="namedview1"
     pagecolor="#ffffff"
     bordercolor="#000000"
     borderopacity="0.25"
     inkscape:showpageshadow="2"
     inkscape:pageopacity="0.0"
     inkscape:pagecheckerboard="0"
     inkscape:deskcolor="#d1d1d1"
     inkscape:zoom="73.3125"
     inkscape:cx="7.9931799"
     inkscape:cy="8"
     inkscape:window-width="2560"
     inkscape:window-height="1369"
     inkscape:window-x="-8"
     inkscape:window-y="-8"
     inkscape:window-maximized="1"
     inkscape:current-layer="svg1" />
  <circle
     cx="8"
     cy="8"
     r="5"
     fill="none"
     stroke-width="2"
     stroke="#e0e0e0"
     id="circle1" />
  <path
     style="fill:#ffd42a;stroke-width:0.0136402"
     d="M 7.6794544,13.985663 C 5.9703289,13.890529 4.3912944,13.078276 3.3221021,11.744246 1.8634906,9.9243373 1.5944699,7.4229429 2.6328425,5.3354077 3.0230115,4.5510156 3.5727823,3.8689637 4.2557545,3.3220043 5.8260237,2.0644518 7.9173903,1.6790676 9.8346121,2.2939665 c 1.5154599,0.4860444 2.7885309,1.5731919 3.5121149,2.9991936 0.793492,1.5637751 0.858906,3.4159719 0.177692,5.0313029 -0.713675,1.692302 -2.172075,2.970859 -3.9438606,3.457521 -0.5931039,0.162909 -1.2907451,0.237652 -1.901104,0.203679 z m 0.859335,-2.015302 c 0.463388,-0.06954 0.8246966,-0.179547 1.2105212,-0.368565 1.0317254,-0.505451 1.7800904,-1.395266 2.1031654,-2.5006894 0.04434,-0.1517168 0.09707,-0.4105235 0.125691,-0.6168781 0.02422,-0.1746626 0.02437,-0.7965394 2.26e-4,-0.968457 C 11.910328,7.0310621 11.795933,6.6468426 11.601735,6.2506894 11.210953,5.4535143 10.598767,4.8288941 9.8209719,4.4337555 9.4049487,4.2224059 9.050753,4.1094826 8.5662411,4.033727 8.4136363,4.0098667 8.3185664,4.0047798 8.0136402,4.0041593 7.6286069,4.003376 7.5325808,4.0116504 7.2126189,4.0731827 6.4003219,4.2293964 5.5990264,4.6819609 5.0414796,5.2994225 4.7768297,5.5925122 4.5914335,5.8646305 4.4143183,6.2199488 c -0.2070988,0.41547 -0.3228203,0.79735 -0.3926742,1.2958227 -0.024315,0.1735074 -0.024315,0.7949496 0,0.968457 0.085139,0.6075425 0.2671645,1.1268273 0.5657107,1.6138635 0.6323982,1.031669 1.7411176,1.742311 2.9284167,1.876991 0.07127,0.0081 0.1479966,0.01723 0.170503,0.02033 0.098198,0.01351 0.7166498,-0.0047 0.8525149,-0.02505 z"
     id="path1" />
</svg>
