<?xml version="1.0" encoding="UTF-8" standalone="no"?>
<svg
   height="16"
   viewBox="0 0 16 16"
   width="16"
   version="1.1"
   id="svg1"
   sodipodi:docname="HighlightRenderer.svg"
   inkscape:version="1.3 (0e150ed6c4, 2023-07-21)"
   xmlns:inkscape="http://www.inkscape.org/namespaces/inkscape"
   xmlns:sodipodi="http://sodipodi.sourceforge.net/DTD/sodipodi-0.dtd"
   xmlns="http://www.w3.org/2000/svg"
   xmlns:svg="http://www.w3.org/2000/svg">
  <defs
     id="defs1" />
  <sodipodi:namedview
     id="namedview1"
     pagecolor="#ffffff"
     bordercolor="#000000"
     borderopacity="0.25"
     inkscape:showpageshadow="2"
     inkscape:pageopacity="0.0"
     inkscape:pagecheckerboard="0"
     inkscape:deskcolor="#d1d1d1"
     showgrid="false"
     inkscape:zoom="73.3125"
     inkscape:cx="7.9931799"
     inkscape:cy="8"
     inkscape:window-width="2560"
     inkscape:window-height="1369"
     inkscape:window-x="-8"
     inkscape:window-y="-8"
     inkscape:window-maximized="1"
     inkscape:current-layer="svg1" />
  <path
     d="M9 2a3 3 0 0 0-3 2.777 3 3 0 1 0-3 5.047V12a1 1 0 0 0 1 1h6a1 1 0 0 0 1-1v-1l3 2V7l-3 2V7.23A3 3 0 0 0 9 2z"
     fill="#fc7f7f"
     id="path1" />
  <path
     style="fill:#ffd42a;stroke-width:0.0136402"
     d="M 3.879121,12.98494 C 3.7545254,12.968489 3.6874934,12.948109 3.5669224,12.89002 3.3647918,12.792636 3.1966326,12.621896 3.1011926,12.417141 3.0057435,12.212366 3.0097768,12.27226 3.0044233,10.980127 L 2.9995904,9.8136206 2.9081499,9.7817963 C 2.5577912,9.6598603 2.1560276,9.3989989 1.8550701,9.0980415 1.2831539,8.5261253 0.98180777,7.7960383 0.9824099,6.9838022 0.98267096,6.6316425 1.0217389,6.3777273 1.1244738,6.0604812 1.2690632,5.6139889 1.5224879,5.200411 1.8544452,4.8692001 2.2950191,4.4296168 2.8385159,4.1504737 3.4919011,4.028193 3.6765706,3.993632 4.2595137,3.99379 4.4467178,4.0284516 5.0234934,4.1352438 5.5053422,4.3606879 5.9160034,4.715891 6.0139414,4.800603 6.0028994,4.812895 6.0291467,4.5899403 6.0490707,4.4206976 6.1183677,4.1426735 6.1855375,3.9624893 6.5397202,3.0123872 7.3547833,2.2999869 8.3376067,2.0814881 c 0.2473758,-0.054996 0.382693,-0.068916 0.6649508,-0.068405 0.294039,5.323e-4 0.4640537,0.02098 0.7273772,0.087484 1.0507773,0.2653773 1.8873183,1.098487 2.1577033,2.1488543 0.07177,0.2787971 0.09366,0.4540279 0.09366,0.7497269 0,0.2957048 -0.02179,0.4700949 -0.09389,0.7513934 -0.131957,0.5148617 -0.400619,0.9848582 -0.779615,1.3638536 L 10.99403,7.2281582 v 0.8872 c 0,0.48796 0.0031,0.8872001 0.0069,0.8872001 0.0038,0 0.678968,-0.4480958 1.500426,-0.9957688 L 13.994885,7.0110199 V 9.998295 12.98557 l -1.493559,-0.995769 c -0.821458,-0.547673 -1.496649,-0.995769 -1.500426,-0.995769 -0.0038,0 -0.0069,0.245783 -0.0069,0.546185 0,0.446212 -0.004,0.565411 -0.0217,0.651225 -0.07701,0.372848 -0.350974,0.664203 -0.724606,0.770614 l -0.106213,0.03025 -3.0895136,0.0018 c -1.6992327,10e-4 -3.1270298,-0.0031 -3.1728824,-0.0092 z"
     id="path2" />
</svg>
